ffmpeg version 3.4.8-0ubuntu0.2 Copyright (c) 2000-2020 the FFmpeg developers
  built with gcc 7 (Ubuntu 7.5.0-3ubuntu1~18.04)
  configuration: --prefix=/usr --extra-version=0ubuntu0.2 --toolchain=hardened --libdir=/usr/lib/x86_64-linux-gnu --incdir=/usr/include/x86_64-linux-gnu --enable-gpl --disable-stripping --enable-avresample --enable-avisynth --enable-gnutls --enable-ladspa --enable-libass --enable-libbluray --enable-libbs2b --enable-libcaca --enable-libcdio --enable-libflite --enable-libfontconfig --enable-libfreetype --enable-libfribidi --enable-libgme --enable-libgsm --enable-libmp3lame --enable-libmysofa --enable-libopenjpeg --enable-libopenmpt --enable-libopus --enable-libpulse --enable-librubberband --enable-librsvg --enable-libshine --enable-libsnappy --enable-libsoxr --enable-libspeex --enable-libssh --enable-libtheora --enable-libtwolame --enable-libvorbis --enable-libvpx --enable-libwavpack --enable-libwebp --enable-libx265 --enable-libxml2 --enable-libxvid --enable-libzmq --enable-libzvbi --enable-omx --enable-openal --enable-opengl --enable-sdl2 --enable-libdc1394 --enable-libdrm --enable-libiec61883 --enable-chromaprint --enable-frei0r --enable-libopencv --enable-libx264 --enable-shared
  libavutil      55. 78.100 / 55. 78.100
  libavcodec     57.107.100 / 57.107.100
  libavformat    57. 83.100 / 57. 83.100
  libavdevice    57. 10.100 / 57. 10.100
  libavfilter     6.107.100 /  6.107.100
  libavresample   3.  7.  0 /  3.  7.  0
  libswscale      4.  8.100 /  4.  8.100
  libswresample   2.  9.100 /  2.  9.100
  libpostproc    54.  7.100 / 54.  7.100
[rawvideo @ 0x55f792acda20] Estimating duration from bitrate, this may be inaccurate
Input #0, rawvideo, from '../../SVC-Encoder-20220109T061506Z-001/SVC-Encoder/Dataset/RollerCoaster/ERP_8x8/tile_yuv/Tile_43_480x240.yuv':
  Duration: 00:00:10.00, start: 0.000000, bitrate: 41472 kb/s
    Stream #0:0: Video: rawvideo (I420 / 0x30323449), yuv420p, 480x240, 41472 kb/s, 30 tbr, 30 tbn, 30 tbc
Stream mapping:
  Stream #0:0 -> #0:0 (rawvideo (native) -> h264 (libx264))
Press [q] to stop, [?] for help
[libx264 @ 0x55f792adac60] using cpu capabilities: MMX2 SSE2Fast LZCNT SSSE3 SSE4.2 AVX
[libx264 @ 0x55f792adac60] profile High, level 2.1
Output #0, rawvideo, to 'RollerCoaster_Tile_43_480x240_x264_QP_28.h264':
  Metadata:
    encoder         : Lavf57.83.100
    Stream #0:0: Video: h264 (libx264), yuv420p, 480x240, q=-1--1, 30 fps, 30 tbn, 30 tbc
    Metadata:
      encoder         : Lavc57.107.100 libx264
    Side data:
      cpb: bitrate max/min/avg: 0/0/0 buffer size: 0 vbv_delay: -1
frame=  135 fps=0.0 q=34.0 PSNR=Y:nan U:nan V:nan *:nan size=      99kB time=00:00:03.06 bitrate= 264.3kbits/s speed=6.08x    frame=  269 fps=267 q=34.0 PSNR=Y:nan U:nan V:nan *:nan size=     224kB time=00:00:07.53 bitrate= 243.7kbits/s speed=7.49x    frame=  300 fps=239 q=34.0 LPSNR=Y:inf U:inf V:inf *:inf size=     293kB time=00:00:09.93 bitrate= 241.4kbits/s speed=7.91x    
video:293kB audio:0kB subtitle:0kB other streams:0kB global headers:0kB muxing overhead: 0.000000%
[libx264 @ 0x55f792adac60] frame I:2     Avg QP:26.90  size: 10683  PSNR Mean Y:40.77 U:44.45 V:47.66 Avg:41.89 Global:41.89
[libx264 @ 0x55f792adac60] frame P:79    Avg QP:28.21  size:  2354  PSNR Mean Y:38.79 U:44.42 V:47.27 Avg:40.12 Global:40.09
[libx264 @ 0x55f792adac60] frame B:219   Avg QP:33.44  size:   422  PSNR Mean Y:38.69 U:44.63 V:47.32 Avg:40.04 Global:40.01
[libx264 @ 0x55f792adac60] consecutive B-frames:  1.0%  4.7%  1.0% 93.3%
[libx264 @ 0x55f792adac60] mb I  I16..4: 10.1% 66.2% 23.7%
[libx264 @ 0x55f792adac60] mb P  I16..4:  0.8%  1.3%  0.6%  P16..4: 44.6% 22.1%  8.7%  0.0%  0.0%    skip:21.8%
[libx264 @ 0x55f792adac60] mb B  I16..4:  0.1%  0.1%  0.0%  B16..8: 39.3%  5.1%  0.4%  direct: 0.3%  skip:54.7%  L0:37.8% L1:56.4% BI: 5.8%
[libx264 @ 0x55f792adac60] 8x8 transform intra:57.0% inter:68.5%
[libx264 @ 0x55f792adac60] coded y,uvDC,uvAC intra: 61.7% 70.2% 30.3% inter: 8.5% 7.6% 0.1%
[libx264 @ 0x55f792adac60] i16 v,h,dc,p: 28% 34% 16% 23%
[libx264 @ 0x55f792adac60] i8 v,h,dc,ddl,ddr,vr,hd,vl,hu: 14% 30% 16%  6%  4%  3%  9% 12%  6%
[libx264 @ 0x55f792adac60] i4 v,h,dc,ddl,ddr,vr,hd,vl,hu: 15% 30% 14%  9%  4%  3% 10%  9%  5%
[libx264 @ 0x55f792adac60] i8c dc,h,v,p: 47% 27% 13% 14%
[libx264 @ 0x55f792adac60] Weighted P-Frames: Y:0.0% UV:0.0%
[libx264 @ 0x55f792adac60] ref P L0: 63.1% 19.5% 14.3%  3.1%
[libx264 @ 0x55f792adac60] ref B L0: 91.3%  7.2%  1.5%
[libx264 @ 0x55f792adac60] ref B L1: 93.8%  6.2%
[libx264 @ 0x55f792adac60] PSNR Mean Y:38.729 U:44.575 V:47.310 Avg:40.075 Global:40.042 kb/s:239.81
